<?xml version="1.0" encoding="UTF-8"?>
<svg id="Camada_1" xmlns="http://www.w3.org/2000/svg" version="1.1" viewBox="0 0 475.7 144.6">
  <!-- Generator: Adobe Illustrator 29.5.1, SVG Export Plug-In . SVG Version: 2.1.0 Build 141)  -->
  <defs>
    <style>
      .st0, .st1 {
        fill: #035959;
      }

      .st2, .st3, .st4 {
        fill: #231f20;
      }

      .st5, .st6 {
        fill: #fff;
      }

      .st6, .st1, .st3 {
        fill-rule: evenodd;
      }

      .st7, .st4 {
        display: none;
      }
    </style>
  </defs>
  <g class="st7">
    <path class="st1" d="M294.4-17.8h1.3c.6,0,1,0,1.2-.3.2-.2.3-.4.3-.7s0-.4-.2-.5c-.1-.1-.3-.3-.4-.3-.2,0-.5-.1-1-.1h-1.2v1.9ZM293.3-14.1v-6.4h2.2c.8,0,1.3,0,1.6.2.3.1.6.3.8.6.2.3.3.6.3.9s-.2.9-.5,1.2c-.3.3-.8.5-1.3.6.2,0,.4.2.5.3.3.3.6.7,1,1.3l.8,1.3h-1.3l-.6-1c-.4-.8-.8-1.3-1.1-1.5-.2-.1-.5-.2-.8-.2h-.6v2.7h-1ZM296-22.4c-.8,0-1.7.2-2.5.6-.8.4-1.4,1-1.9,1.8-.4.8-.7,1.6-.7,2.5s.2,1.7.7,2.5c.4.8,1.1,1.4,1.9,1.9.8.4,1.6.7,2.5.7s1.7-.2,2.5-.7c.8-.4,1.4-1.1,1.8-1.9.4-.8.7-1.6.7-2.5s-.2-1.7-.7-2.5c-.4-.8-1.1-1.4-1.9-1.8-.8-.4-1.6-.6-2.5-.6ZM296-23.4c1,0,2,.3,2.9.8,1,.5,1.7,1.3,2.2,2.2.5,1,.8,2,.8,3s-.3,2-.8,3c-.5,1-1.3,1.7-2.2,2.2-1,.5-1.9.8-3,.8s-2-.3-3-.8c-1-.5-1.7-1.3-2.2-2.2-.5-1-.8-1.9-.8-3s.3-2,.8-3c.5-1,1.3-1.7,2.2-2.2,1-.5,1.9-.8,2.9-.8Z"/>
    <path class="st0" d="M255.6-.6c.4-2.3.7-3.8.8-4.7.1-.9.3-2.2.6-4,6.6-1.5,12.3-2.2,17.1-2.2s5.2.3,7.5.9c2.3.6,4,1.6,5.3,3,1.3,1.4,1.9,3.3,1.9,5.8s-.2,4.2-.5,8.7c-.3,4.5-.6,10.4-.8,17.8-2.3,0-4.5,0-6.8,0s-4.5,0-6.9,0c.3-2.5.7-7.8,1.1-15.7-.9.4-1.6.7-2.1.9-.5.2-1.4.5-2.6.9-1.3.4-2.2.7-2.9.9-.7.3-1.3.6-1.8,1-.5.4-.9.8-1.1,1.2-.2.4-.3.9-.3,1.4,0,.8.3,1.5.9,2,.6.6,1.6.8,3,.8s1,0,1.6-.1c.6,0,1.3-.3,2.3-.6-.7,1.7-1.5,4.3-2.4,7.6-2,.3-3.9.5-5.6.5-2.9,0-5.2-.4-7.1-1.2-1.9-.8-3.4-2.1-4.4-3.9-1-1.8-1.5-3.6-1.5-5.3s.2-2.1.6-3.2c.4-1,1-2.1,1.8-3,.8-1,1.7-1.8,2.8-2.5,1.1-.7,2.6-1.4,4.4-2,1.9-.6,4.2-1.2,7.1-1.8,1.2-.2,2.3-.5,3.3-.7,1-.3,1.7-.5,2.1-.7.4-.2.8-.4,1-.7.3-.3.5-.5.6-.8.1-.3.2-.6.2-.9,0-.9-.4-1.6-1.1-2-.7-.5-1.8-.7-3.2-.7-4,0-8.8,1.1-14.6,3.3M223.3,3.1h11.5c0-.4,0-.7,0-1,0-1.2-.2-2.2-.6-3.1-.4-.8-1.1-1.5-1.8-1.9-.8-.4-1.7-.6-2.7-.6s-1.4.1-2,.3c-.6.2-1.2.5-1.8,1-.5.4-1,.9-1.3,1.5-.3.5-.6,1.1-.8,1.6-.2.5-.3,1.2-.5,2.2ZM244.7,14.3c-.3,1.4-.9,4.7-1.7,10-2.7.5-4.9.9-6.8,1.1-1.8.2-3.7.3-5.5.3-2.8,0-5.3-.2-7.6-.6-2.3-.4-4.3-1.1-6-2-1.7-1-3.1-2.2-4.2-3.6-1.1-1.4-2-3.2-2.6-5.1-.6-2-.9-4-.9-6.1s.6-5.8,1.8-8.7c1.2-2.8,2.7-5,4.5-6.6,1.9-1.6,4-2.7,6.4-3.4,2.4-.7,4.9-1,7.4-1s5.1.3,7.5.9c2.4.6,4.4,1.7,6.1,3.2,1.7,1.5,2.8,3.2,3.6,5.1.7,1.9,1.1,4,1.1,6.2s-.1,2.8-.4,4.4h-24.3c0,.4,0,.7,0,1,0,2.5.9,4.3,2.7,5.5,1.8,1.2,4,1.8,6.5,1.8s3.3-.2,5.2-.5c1.9-.4,4.4-1,7.2-1.8ZM171.3,24c-.3-4.9-.6-8.8-1-11.8,2.6,1.1,4.9,1.9,7,2.4,2,.4,3.8.7,5.3.7s3.6-.3,4.8-.9c1.2-.6,1.8-1.5,1.8-2.6s0-.8-.2-1.1c-.1-.4-.3-.8-.7-1.2-.3-.4-.8-.9-1.4-1.5l-6.6-5.7c-1.5-1.3-2.6-2.2-3.2-2.8-1.2-1.2-2.2-2.3-2.9-3.3-.7-1-1.2-2-1.5-3.1-.3-1.1-.5-2.2-.5-3.3s.2-2.8.7-4.1c.5-1.3,1.2-2.6,2.2-3.8,1-1.2,2.3-2.2,4-3,1.6-.9,3.4-1.4,5.3-1.7,1.9-.3,3.8-.5,5.8-.5,3.9,0,8.2.4,12.8,1.3,0,1.6.1,3,.2,4.4,0,1.3.3,3.6.7,7-2.1-.8-4.1-1.4-5.9-1.8-1.8-.3-3.3-.5-4.6-.5-1.8,0-3.3.3-4.5,1-1.2.7-1.8,1.5-1.8,2.5s0,.9.3,1.3c.2.4.5,1,1,1.5.5.6,1.2,1.2,2,1.9.8.7,2.1,1.7,3.9,3.1l2.5,2c.7.6,1.5,1.3,2.4,2.2.9.9,1.6,1.7,2.2,2.5.6.8,1.1,1.6,1.5,2.3.3.7.6,1.4.7,2.1.2.7.2,1.5.2,2.3,0,2.1-.5,4-1.5,5.9-1,1.9-2.4,3.4-4.2,4.6-1.8,1.2-3.8,2.1-6,2.5-2.2.5-4.5.7-6.9.7-3.7,0-8.5-.5-14.2-1.6ZM142.2,4.8l6-8.6,4.5-6.9c3.2,0,5.6,0,7.2,0s4.9,0,8,0l-6.9,9c-1.6,2.1-3.3,4.3-4.9,6.6,1.6,3,5.5,9.6,11.7,19.7-2.7,0-5.1,0-7.3,0s-4.8,0-7.6,0l-2.1-4.3c-.8-1.5-1.4-2.8-2-3.8-.2-.4-1.8-3.2-4.8-8.5l-1.7-3.3ZM127,24.7c.3-3,.6-5.3.7-7.2.2-2.5.4-5.7.6-9.4l.4-8.2c.2-3.7.3-7.3.3-10.7,0-4.1.1-8,.1-11.7,3.2,0,5.6,0,7.3,0s4.1,0,6.6,0c-.5,6-1,13.6-1.5,22.5-.4,9-.6,17.2-.6,24.7-2.7,0-4.9,0-6.8,0s-4.5,0-7.1,0ZM98.1,3.1h11.5c0-.4,0-.7,0-1,0-1.2-.2-2.2-.6-3.1-.4-.8-1.1-1.5-1.8-1.9-.8-.4-1.7-.6-2.7-.6s-1.4.1-2,.3c-.6.2-1.2.5-1.8,1-.5.4-1,.9-1.3,1.5-.3.5-.6,1.1-.8,1.6-.2.5-.3,1.2-.5,2.2ZM119.5,14.3c-.3,1.4-.9,4.7-1.7,10-2.7.5-4.9.9-6.8,1.1-1.8.2-3.7.3-5.5.3-2.8,0-5.3-.2-7.6-.6-2.3-.4-4.3-1.1-6-2-1.7-1-3.1-2.2-4.2-3.6-1.1-1.4-2-3.2-2.6-5.1-.6-2-.9-4-.9-6.1s.6-5.8,1.8-8.7c1.2-2.8,2.7-5,4.5-6.6,1.9-1.6,4-2.7,6.4-3.4,2.4-.7,4.9-1,7.4-1s5.1.3,7.5.9c2.4.6,4.4,1.7,6.1,3.2,1.7,1.5,2.8,3.2,3.6,5.1.7,1.9,1.1,4,1.1,6.2s-.1,2.8-.4,4.4h-24.3c0,.4,0,.7,0,1,0,2.5.9,4.3,2.7,5.5,1.8,1.2,4,1.8,6.5,1.8s3.3-.2,5.2-.5c1.9-.4,4.4-1,7.2-1.8ZM51.1,24.7c1.1-11.2,1.8-23.6,2-37l-14.7.4.2-3.8c0-2.1.2-4.3.2-6.7,6.6,0,14.2,0,22.9,0h8.5s8.3,0,8.3,0h4.5s-.2,3.3-.2,3.3c0,1.8-.2,3.3-.2,4.5,0,1.2,0,2.1,0,2.7-4.9-.2-9-.4-12.2-.4h-2.4c-.4,4.1-.6,7.8-.8,11.3-.3,5-.4,9.8-.6,14.4-.1,4.7-.2,8.4-.2,11.3-3.8,0-6.2,0-7.3,0s-3.6,0-7.9,0Z"/>
  </g>
  <g class="st7">
    <path class="st3" d="M294.4-126.1h1.3c.6,0,1,0,1.2-.3.2-.2.3-.4.3-.7s0-.4-.2-.5c-.1-.1-.3-.3-.4-.3-.2,0-.5-.1-1-.1h-1.2v1.9ZM293.3-122.5v-6.4h2.2c.8,0,1.3,0,1.6.2.3.1.6.3.8.6.2.3.3.6.3.9s-.2.9-.5,1.2c-.3.3-.8.5-1.3.6.2,0,.4.2.5.3.3.3.6.7,1,1.3l.8,1.3h-1.3l-.6-1c-.4-.8-.8-1.3-1.1-1.5-.2-.1-.5-.2-.8-.2h-.6v2.7h-1ZM296-130.8c-.8,0-1.7.2-2.5.6-.8.4-1.4,1-1.9,1.8-.4.8-.7,1.6-.7,2.5s.2,1.7.7,2.5c.4.8,1.1,1.4,1.9,1.9.8.4,1.6.7,2.5.7s1.7-.2,2.5-.7c.8-.4,1.4-1.1,1.8-1.9.4-.8.7-1.6.7-2.5s-.2-1.7-.7-2.5c-.4-.8-1.1-1.4-1.9-1.8-.8-.4-1.6-.6-2.5-.6ZM296-131.8c1,0,2,.3,2.9.8,1,.5,1.7,1.3,2.2,2.2.5,1,.8,2,.8,3s-.3,2-.8,3c-.5,1-1.3,1.7-2.2,2.2-1,.5-1.9.8-3,.8s-2-.3-3-.8c-1-.5-1.7-1.3-2.2-2.2-.5-1-.8-1.9-.8-3s.3-2,.8-3c.5-1,1.3-1.7,2.2-2.2,1-.5,1.9-.8,2.9-.8Z"/>
    <path class="st2" d="M255.6-109c.4-2.3.7-3.8.8-4.7.1-.9.3-2.2.6-4,6.6-1.5,12.3-2.2,17.1-2.2s5.2.3,7.5.9c2.3.6,4,1.6,5.3,3,1.3,1.4,1.9,3.3,1.9,5.8s-.2,4.2-.5,8.7c-.3,4.5-.6,10.4-.8,17.8-2.3,0-4.5,0-6.8,0s-4.5,0-6.9,0c.3-2.5.7-7.8,1.1-15.7-.9.4-1.6.7-2.1.9-.5.2-1.4.5-2.6.9-1.3.4-2.2.7-2.9.9-.7.3-1.3.6-1.8,1-.5.4-.9.8-1.1,1.2-.2.4-.3.9-.3,1.4,0,.8.3,1.5.9,2,.6.6,1.6.8,3,.8s1,0,1.6-.1c.6,0,1.3-.3,2.3-.6-.7,1.7-1.5,4.3-2.4,7.6-2,.3-3.9.5-5.6.5-2.9,0-5.2-.4-7.1-1.2-1.9-.8-3.4-2.1-4.4-3.9-1-1.8-1.5-3.6-1.5-5.3s.2-2.1.6-3.2c.4-1,1-2.1,1.8-3,.8-1,1.7-1.8,2.8-2.5,1.1-.7,2.6-1.4,4.4-2,1.9-.6,4.2-1.2,7.1-1.8,1.2-.2,2.3-.5,3.3-.7,1-.3,1.7-.5,2.1-.7.4-.2.8-.4,1-.7.3-.3.5-.5.6-.8.1-.3.2-.6.2-.9,0-.9-.4-1.6-1.1-2-.7-.5-1.8-.7-3.2-.7-4,0-8.8,1.1-14.6,3.3M223.3-105.3h11.5c0-.4,0-.7,0-1,0-1.2-.2-2.2-.6-3.1-.4-.8-1.1-1.5-1.8-1.9-.8-.4-1.7-.6-2.7-.6s-1.4.1-2,.3c-.6.2-1.2.5-1.8,1-.5.4-1,.9-1.3,1.5-.3.5-.6,1.1-.8,1.6-.2.5-.3,1.2-.5,2.2ZM244.7-94.1c-.3,1.4-.9,4.7-1.7,10-2.7.5-4.9.9-6.8,1.1-1.8.2-3.7.3-5.5.3-2.8,0-5.3-.2-7.6-.6-2.3-.4-4.3-1.1-6-2-1.7-1-3.1-2.2-4.2-3.6-1.1-1.4-2-3.2-2.6-5.1-.6-2-.9-4-.9-6.1s.6-5.8,1.8-8.7c1.2-2.8,2.7-5,4.5-6.6,1.9-1.6,4-2.7,6.4-3.4,2.4-.7,4.9-1,7.4-1s5.1.3,7.5.9c2.4.6,4.4,1.7,6.1,3.2,1.7,1.5,2.8,3.2,3.6,5.1.7,1.9,1.1,4,1.1,6.2s-.1,2.8-.4,4.4h-24.3c0,.4,0,.7,0,1,0,2.5.9,4.3,2.7,5.5,1.8,1.2,4,1.8,6.5,1.8s3.3-.2,5.2-.5c1.9-.4,4.4-1,7.2-1.8ZM171.3-84.4c-.3-4.9-.6-8.8-1-11.8,2.6,1.1,4.9,1.9,7,2.4,2,.4,3.8.7,5.3.7s3.6-.3,4.8-.9c1.2-.6,1.8-1.5,1.8-2.6s0-.8-.2-1.1c-.1-.4-.3-.8-.7-1.2-.3-.4-.8-.9-1.4-1.5l-6.6-5.7c-1.5-1.3-2.6-2.2-3.2-2.8-1.2-1.2-2.2-2.3-2.9-3.3-.7-1-1.2-2-1.5-3.1-.3-1.1-.5-2.2-.5-3.3s.2-2.8.7-4.1c.5-1.3,1.2-2.6,2.2-3.8,1-1.2,2.3-2.2,4-3,1.6-.9,3.4-1.4,5.3-1.7,1.9-.3,3.8-.5,5.8-.5,3.9,0,8.2.4,12.8,1.3,0,1.6.1,3,.2,4.4,0,1.3.3,3.6.7,7-2.1-.8-4.1-1.4-5.9-1.8-1.8-.3-3.3-.5-4.6-.5-1.8,0-3.3.3-4.5,1-1.2.7-1.8,1.5-1.8,2.5s0,.9.3,1.3c.2.4.5,1,1,1.5.5.6,1.2,1.2,2,1.9.8.7,2.1,1.7,3.9,3.1l2.5,2c.7.6,1.5,1.3,2.4,2.2.9.9,1.6,1.7,2.2,2.5.6.8,1.1,1.6,1.5,2.3.3.7.6,1.4.7,2.1.2.7.2,1.5.2,2.3,0,2.1-.5,4-1.5,5.9-1,1.9-2.4,3.4-4.2,4.6-1.8,1.2-3.8,2.1-6,2.5-2.2.5-4.5.7-6.9.7-3.7,0-8.5-.5-14.2-1.6ZM142.2-103.6l6-8.6,4.5-6.9c3.2,0,5.6,0,7.2,0s4.9,0,8,0l-6.9,9c-1.6,2.1-3.3,4.3-4.9,6.6,1.6,3,5.5,9.6,11.7,19.7-2.7,0-5.1,0-7.3,0s-4.8,0-7.6,0l-2.1-4.3c-.8-1.5-1.4-2.8-2-3.8-.2-.4-1.8-3.2-4.8-8.5l-1.7-3.3ZM127-83.7c.3-3,.6-5.3.7-7.2.2-2.5.4-5.7.6-9.4l.4-8.2c.2-3.7.3-7.3.3-10.7,0-4.1.1-8,.1-11.7,3.2,0,5.6,0,7.3,0s4.1,0,6.6,0c-.5,6-1,13.6-1.5,22.5-.4,9-.6,17.2-.6,24.7-2.7,0-4.9,0-6.8,0s-4.5,0-7.1,0ZM98.1-105.3h11.5c0-.4,0-.7,0-1,0-1.2-.2-2.2-.6-3.1-.4-.8-1.1-1.5-1.8-1.9-.8-.4-1.7-.6-2.7-.6s-1.4.1-2,.3c-.6.2-1.2.5-1.8,1-.5.4-1,.9-1.3,1.5-.3.5-.6,1.1-.8,1.6-.2.5-.3,1.2-.5,2.2ZM119.5-94.1c-.3,1.4-.9,4.7-1.7,10-2.7.5-4.9.9-6.8,1.1-1.8.2-3.7.3-5.5.3-2.8,0-5.3-.2-7.6-.6-2.3-.4-4.3-1.1-6-2-1.7-1-3.1-2.2-4.2-3.6-1.1-1.4-2-3.2-2.6-5.1-.6-2-.9-4-.9-6.1s.6-5.8,1.8-8.7c1.2-2.8,2.7-5,4.5-6.6,1.9-1.6,4-2.7,6.4-3.4,2.4-.7,4.9-1,7.4-1s5.1.3,7.5.9c2.4.6,4.4,1.7,6.1,3.2,1.7,1.5,2.8,3.2,3.6,5.1.7,1.9,1.1,4,1.1,6.2s-.1,2.8-.4,4.4h-24.3c0,.4,0,.7,0,1,0,2.5.9,4.3,2.7,5.5,1.8,1.2,4,1.8,6.5,1.8s3.3-.2,5.2-.5c1.9-.4,4.4-1,7.2-1.8ZM51.1-83.7c1.1-11.2,1.8-23.6,2-37l-14.7.4.2-3.8c0-2.1.2-4.3.2-6.7,6.6,0,14.2,0,22.9,0h8.5s8.3,0,8.3,0h4.5s-.2,3.3-.2,3.3c0,1.8-.2,3.3-.2,4.5,0,1.2,0,2.1,0,2.7-4.9-.2-9-.4-12.2-.4h-2.4c-.4,4.1-.6,7.8-.8,11.3-.3,5-.4,9.8-.6,14.4-.1,4.7-.2,8.4-.2,11.3-3.8,0-6.2,0-7.3,0s-3.6,0-7.9,0Z"/>
  </g>
  <rect class="st4" x="1" y="48.2" width="338.5" height="122.5"/>
  <g>
    <path class="st6" d="M362,53.4h1.3c.6,0,1,0,1.2-.3.2-.2.3-.4.3-.7s0-.4-.2-.5c-.1-.1-.3-.3-.4-.3-.2,0-.5-.1-1-.1h-1.2v1.9ZM361,57.1v-6.4h2.2c.8,0,1.3,0,1.6.2.3.1.6.3.8.6.2.3.3.6.3.9s-.2.9-.5,1.2c-.3.3-.8.5-1.3.6.2,0,.4.2.5.3.3.3.6.7,1,1.3l.8,1.3h-1.3l-.6-1c-.4-.8-.8-1.3-1.1-1.5-.2-.1-.5-.2-.8-.2h-.6v2.7h-1ZM363.6,48.8c-.8,0-1.7.2-2.5.6-.8.4-1.4,1-1.9,1.8-.4.8-.7,1.6-.7,2.5s.2,1.7.7,2.5c.4.8,1.1,1.4,1.9,1.9.8.4,1.6.7,2.5.7s1.7-.2,2.5-.7c.8-.4,1.4-1.1,1.8-1.9.4-.8.7-1.6.7-2.5s-.2-1.7-.7-2.5c-.4-.8-1.1-1.4-1.9-1.8-.8-.4-1.6-.6-2.5-.6ZM363.6,47.8c1,0,2,.3,2.9.8,1,.5,1.7,1.3,2.2,2.2.5,1,.8,2,.8,3s-.3,2-.8,3c-.5,1-1.3,1.7-2.2,2.2-1,.5-1.9.8-3,.8s-2-.3-3-.8c-1-.5-1.7-1.3-2.2-2.2-.5-1-.8-1.9-.8-3s.3-2,.8-3c.5-1,1.3-1.7,2.2-2.2,1-.5,1.9-.8,2.9-.8Z"/>
    <path class="st5" d="M323.3,70.6c.4-2.3.7-3.8.8-4.7.1-.9.3-2.2.6-4,6.6-1.5,12.3-2.2,17.1-2.2s5.2.3,7.5.9c2.3.6,4,1.6,5.3,3,1.3,1.4,1.9,3.3,1.9,5.8s-.2,4.2-.5,8.7c-.3,4.5-.6,10.4-.8,17.8-2.3,0-4.5,0-6.8,0s-4.5,0-6.9,0c.3-2.5.7-7.8,1.1-15.7-.9.4-1.6.7-2.1.9-.5.2-1.4.5-2.6.9-1.3.4-2.2.7-2.9.9-.7.3-1.3.6-1.8,1-.5.4-.9.8-1.1,1.2-.2.4-.3.9-.3,1.4,0,.8.3,1.5.9,2,.6.6,1.6.8,3,.8s1,0,1.6-.1c.6,0,1.3-.3,2.3-.6-.7,1.7-1.5,4.3-2.4,7.6-2,.3-3.9.5-5.6.5-2.9,0-5.2-.4-7.1-1.2-1.9-.8-3.4-2.1-4.4-3.9-1-1.8-1.5-3.6-1.5-5.3s.2-2.1.6-3.2c.4-1,1-2.1,1.8-3,.8-1,1.7-1.8,2.8-2.5,1.1-.7,2.6-1.4,4.4-2,1.9-.6,4.2-1.2,7.1-1.8,1.2-.2,2.3-.5,3.3-.7,1-.3,1.7-.5,2.1-.7.4-.2.8-.4,1-.7.3-.3.5-.5.6-.8.1-.3.2-.6.2-.9,0-.9-.4-1.6-1.1-2-.7-.5-1.8-.7-3.2-.7-4,0-8.8,1.1-14.6,3.3M291,74.3h11.5c0-.4,0-.7,0-1,0-1.2-.2-2.2-.6-3.1-.4-.8-1.1-1.5-1.8-1.9-.8-.4-1.7-.6-2.7-.6s-1.4.1-2,.3c-.6.2-1.2.5-1.8,1-.5.4-1,.9-1.3,1.5-.3.5-.6,1.1-.8,1.6-.2.5-.3,1.2-.5,2.2ZM312.4,85.5c-.3,1.4-.9,4.7-1.7,10-2.7.5-4.9.9-6.8,1.1-1.8.2-3.7.3-5.5.3-2.8,0-5.3-.2-7.6-.6-2.3-.4-4.3-1.1-6-2-1.7-1-3.1-2.2-4.2-3.6-1.1-1.4-2-3.2-2.6-5.1-.6-2-.9-4-.9-6.1s.6-5.8,1.8-8.7c1.2-2.8,2.7-5,4.5-6.6,1.9-1.6,4-2.7,6.4-3.4,2.4-.7,4.9-1,7.4-1s5.1.3,7.5.9c2.4.6,4.4,1.7,6.1,3.2,1.7,1.5,2.8,3.2,3.6,5.1.7,1.9,1.1,4,1.1,6.2s-.1,2.8-.4,4.4h-24.3c0,.4,0,.7,0,1,0,2.5.9,4.3,2.7,5.5,1.8,1.2,4,1.8,6.5,1.8s3.3-.2,5.2-.5c1.9-.4,4.4-1,7.2-1.8ZM238.9,95.2c-.3-4.9-.6-8.8-1-11.8,2.6,1.1,4.9,1.9,7,2.4,2,.4,3.8.7,5.3.7s3.6-.3,4.8-.9c1.2-.6,1.8-1.5,1.8-2.6s0-.8-.2-1.1c-.1-.4-.3-.8-.7-1.2-.3-.4-.8-.9-1.4-1.5l-6.6-5.7c-1.5-1.3-2.6-2.2-3.2-2.8-1.2-1.2-2.2-2.3-2.9-3.3-.7-1-1.2-2-1.5-3.1-.3-1.1-.5-2.2-.5-3.3s.2-2.8.7-4.1c.5-1.3,1.2-2.6,2.2-3.8,1-1.2,2.3-2.2,4-3,1.6-.9,3.4-1.4,5.3-1.7,1.9-.3,3.8-.5,5.8-.5,3.9,0,8.2.4,12.8,1.3,0,1.6.1,3,.2,4.4,0,1.3.3,3.6.7,7-2.1-.8-4.1-1.4-5.9-1.8-1.8-.3-3.3-.5-4.6-.5-1.8,0-3.3.3-4.5,1-1.2.7-1.8,1.5-1.8,2.5s0,.9.3,1.3c.2.4.5,1,1,1.5.5.6,1.2,1.2,2,1.9.8.7,2.1,1.7,3.9,3.1l2.5,2c.7.6,1.5,1.3,2.4,2.2.9.9,1.6,1.7,2.2,2.5.6.8,1.1,1.6,1.5,2.3.3.7.6,1.4.7,2.1.2.7.2,1.5.2,2.3,0,2.1-.5,4-1.5,5.9-1,1.9-2.4,3.4-4.2,4.6-1.8,1.2-3.8,2.1-6,2.5-2.2.5-4.5.7-6.9.7-3.7,0-8.5-.5-14.2-1.6ZM209.9,76l6-8.6,4.5-6.9c3.2,0,5.6,0,7.2,0s4.9,0,8,0l-6.9,9c-1.6,2.1-3.3,4.3-4.9,6.6,1.6,3,5.5,9.6,11.7,19.7-2.7,0-5.1,0-7.3,0s-4.8,0-7.6,0l-2.1-4.3c-.8-1.5-1.4-2.8-2-3.8-.2-.4-1.8-3.2-4.8-8.5l-1.7-3.3ZM194.6,95.9c.3-3,.6-5.3.7-7.2.2-2.5.4-5.7.6-9.4l.4-8.2c.2-3.7.3-7.3.3-10.7,0-4.1.1-8,.1-11.7,3.2,0,5.6,0,7.3,0s4.1,0,6.6,0c-.5,6-1,13.6-1.5,22.5-.4,9-.6,17.2-.6,24.7-2.7,0-4.9,0-6.8,0s-4.5,0-7.1,0ZM165.8,74.3h11.5c0-.4,0-.7,0-1,0-1.2-.2-2.2-.6-3.1-.4-.8-1.1-1.5-1.8-1.9-.8-.4-1.7-.6-2.7-.6s-1.4.1-2,.3c-.6.2-1.2.5-1.8,1-.5.4-1,.9-1.3,1.5-.3.5-.6,1.1-.8,1.6-.2.5-.3,1.2-.5,2.2ZM187.1,85.5c-.3,1.4-.9,4.7-1.7,10-2.7.5-4.9.9-6.8,1.1-1.8.2-3.7.3-5.5.3-2.8,0-5.3-.2-7.6-.6-2.3-.4-4.3-1.1-6-2-1.7-1-3.1-2.2-4.2-3.6-1.1-1.4-2-3.2-2.6-5.1-.6-2-.9-4-.9-6.1s.6-5.8,1.8-8.7c1.2-2.8,2.7-5,4.5-6.6,1.9-1.6,4-2.7,6.4-3.4,2.4-.7,4.9-1,7.4-1s5.1.3,7.5.9c2.4.6,4.4,1.7,6.1,3.2,1.7,1.5,2.8,3.2,3.6,5.1.7,1.9,1.1,4,1.1,6.2s-.1,2.8-.4,4.4h-24.3c0,.4,0,.7,0,1,0,2.5.9,4.3,2.7,5.5,1.8,1.2,4,1.8,6.5,1.8s3.3-.2,5.2-.5c1.9-.4,4.4-1,7.2-1.8ZM118.8,95.9c1.1-11.2,1.8-23.6,2-37l-14.7.4.2-3.8c0-2.1.2-4.3.2-6.7,6.6,0,14.2,0,22.9,0h8.5s8.3,0,8.3,0h4.5s-.2,3.3-.2,3.3c0,1.8-.2,3.3-.2,4.5,0,1.2,0,2.1,0,2.7-4.9-.2-9-.4-12.2-.4h-2.4c-.4,4.1-.6,7.8-.8,11.3-.3,5-.4,9.8-.6,14.4-.1,4.7-.2,8.4-.2,11.3-3.8,0-6.2,0-7.3,0s-3.6,0-7.9,0Z"/>
  </g>
</svg>